<svg width="112" height="23" viewBox="0 0 112 23" fill="none" xmlns="http://www.w3.org/2000/svg">
<g id="Group 793">
<g id="Group 11">
<path id="Vector" d="M78.8587 21.7344H63.3548C62.8391 21.6849 62.3525 21.4624 61.9672 21.0999C61.6668 20.85 61.4239 20.5326 61.2565 20.1711C61.0891 19.8096 61.0014 19.4132 61 19.0113C61 13.7591 61 8.50398 61 3.2459C61.0199 2.62483 61.2309 2.02713 61.6014 1.54196C61.972 1.05679 62.4823 0.710143 63.0562 0.553712C63.2566 0.509523 63.4615 0.491763 63.666 0.50084C68.6531 0.50084 73.6402 0.50084 78.6316 0.50084C79.2039 0.516316 79.7576 0.717471 80.2162 1.07655C80.6749 1.43562 81.016 1.93493 81.1924 2.50566C81.2429 2.6731 81.2261 2.84936 81.2681 3.01239V19.3154C81.2107 19.8792 80.9771 20.4074 80.6037 20.8179C80.3959 21.0887 80.1362 21.311 79.8415 21.4704C79.5467 21.6297 79.2234 21.7227 78.8923 21.7432C78.8824 21.7362 78.8705 21.7331 78.8587 21.7344Z" stroke="white" stroke-miterlimit="10"/>
<path id="Vector_2" d="M63.7119 18.9105L64.7799 14.7378C63.9193 13.1124 63.6468 11.2164 64.0126 9.39754C64.3784 7.5787 65.3579 5.95908 66.7713 4.83586C68.1847 3.71264 69.9372 3.16116 71.7073 3.28263C73.4774 3.40411 75.1464 4.19038 76.4079 5.49717C77.6694 6.80395 78.4389 8.54358 78.5752 10.3969C78.7114 12.2502 78.2053 14.0928 77.1497 15.5866C76.0941 17.0805 74.5598 18.1254 72.8283 18.5295C71.0968 18.9337 69.2844 18.67 67.7234 17.7869L63.7119 18.9105ZM67.9169 16.2227L68.1692 16.3813C69.4223 17.1622 70.9047 17.4358 72.337 17.1504C73.7693 16.8651 75.0524 16.0404 75.9445 14.832C76.8365 13.6236 77.2759 12.115 77.1796 10.5906C77.0833 9.06625 76.4581 7.63144 75.4219 6.55677C74.3857 5.48209 73.01 4.84182 71.5543 4.75669C70.0986 4.67155 68.6635 5.14741 67.5196 6.09458C66.3756 7.04174 65.6019 8.39473 65.3444 9.89843C65.0868 11.4021 65.3632 12.9526 66.1214 14.2575L66.277 14.5219L65.6924 16.8616L67.9169 16.2227Z" fill="white" stroke="#323232" stroke-width="0.3" stroke-miterlimit="10"/>
<path id="Vector_3" fill-rule="evenodd" clip-rule="evenodd" d="M73.9387 12.0895C73.7929 11.9674 73.6225 11.8817 73.4403 11.8389C73.2581 11.7962 73.0691 11.7975 72.8875 11.8428C72.6141 11.9574 72.4417 12.4068 72.2609 12.6359C72.2237 12.6898 72.169 12.7276 72.107 12.7422C72.0451 12.7568 71.9802 12.7472 71.9245 12.7152C70.9247 12.3031 70.0864 11.5503 69.5445 10.5782C69.5183 10.5472 69.4984 10.5109 69.4861 10.4716C69.4737 10.4322 69.4692 10.3906 69.4727 10.3494C69.4763 10.3081 69.4878 10.268 69.5066 10.2316C69.5255 10.1952 69.5513 10.1632 69.5824 10.1376C69.7813 9.93486 69.9262 9.68122 70.0029 9.40177C70.019 9.09478 69.9519 8.78928 69.8094 8.52053C69.6959 8.14331 69.4831 7.80731 69.1955 7.55115C69.0464 7.47953 68.8806 7.45513 68.7185 7.48096C68.5564 7.5068 68.405 7.58175 68.283 7.69657C68.0732 7.88549 67.9065 8.12131 67.7951 8.38668C67.6838 8.65204 67.6307 8.94019 67.6396 9.22992C67.6421 9.39471 67.6619 9.55872 67.6985 9.719C67.7962 10.0997 67.9463 10.4633 68.1442 10.7985C68.2872 11.0541 68.4428 11.3008 68.611 11.5432C69.1585 12.3282 69.8453 12.9954 70.6336 13.5084C71.0296 13.7684 71.4529 13.9798 71.8951 14.1384C72.3544 14.3566 72.8615 14.4403 73.3626 14.3808C73.6487 14.3339 73.9196 14.2147 74.1518 14.0335C74.3841 13.8523 74.5707 13.6146 74.6956 13.3409C74.765 13.1747 74.7855 12.9906 74.7545 12.8122C74.6914 12.4817 74.2205 12.2658 73.9387 12.0895Z" fill="white" stroke="#323232" stroke-width="0.3" stroke-miterlimit="10"/>
</g>
<g id="Group 12">
<path id="Vector_4" d="M108.854 21.7343H93.3506C92.836 21.6855 92.3505 21.4628 91.9672 21.0998C91.6668 20.85 91.4239 20.5325 91.2564 20.171C91.089 19.8095 91.0014 19.4131 91 19.0113C91 13.7591 91 8.5039 91 3.24582C91.0215 2.62457 91.2336 2.02715 91.6047 1.54218C91.9759 1.05721 92.4864 0.710537 93.0605 0.553635C93.2594 0.50963 93.4628 0.491869 93.666 0.500762C98.6573 0.500762 103.644 0.500762 108.632 0.500762C109.204 0.515596 109.758 0.716495 110.217 1.07566C110.676 1.43483 111.016 1.93451 111.192 2.50558C111.243 2.67302 111.23 2.84928 111.272 3.01231V19.3153C111.21 19.8778 110.977 20.4044 110.608 20.8178C110.399 21.0884 110.138 21.3104 109.843 21.4697C109.548 21.629 109.224 21.7221 108.892 21.7431C108.887 21.7391 108.881 21.7363 108.874 21.7348C108.868 21.7332 108.861 21.7331 108.854 21.7343V21.7343Z" stroke="white" stroke-miterlimit="10"/>
<path id="Vector_5" d="M101.803 9.96076C101.931 9.78241 102.071 9.61449 102.223 9.45845C102.735 8.99297 103.391 8.73917 104.069 8.74464C104.494 8.71355 104.92 8.75672 105.331 8.87241C106.407 9.18085 106.962 9.98718 107.223 11.0755C107.356 11.6674 107.421 12.2739 107.416 12.8821C107.416 14.3405 107.416 15.799 107.416 17.253C107.416 17.6099 107.278 17.7597 106.941 17.7641H105.196C104.851 17.7641 104.713 17.6187 104.713 17.2662C104.713 15.9884 104.713 14.7106 104.713 13.4328C104.734 12.9777 104.683 12.522 104.561 12.0845C104.499 11.8528 104.373 11.6455 104.199 11.4887C104.024 11.3318 103.81 11.2325 103.581 11.2033C103.322 11.1414 103.051 11.1639 102.805 11.2679C102.558 11.3718 102.348 11.5522 102.202 11.7849C101.94 12.2111 101.805 12.7098 101.815 13.2169V17.1825C101.815 17.6848 101.71 17.795 101.243 17.795H99.6204C99.2924 17.795 99.1494 17.6452 99.1494 17.3059C99.1494 14.6622 99.1494 12.0185 99.1494 9.37473C99.1494 9.04426 99.2882 8.89885 99.6077 8.89885H101.365C101.681 8.89885 101.82 9.04868 101.824 9.38355C101.807 9.54217 101.803 9.72723 101.803 9.96076Z" fill="white" stroke="#323232" stroke-width="0.3" stroke-miterlimit="10"/>
<path id="Vector_6" d="M95.2471 13.3355V9.44041C95.2471 9.04385 95.3942 8.88525 95.7685 8.88525H97.4127C97.7659 8.88525 97.9214 9.04386 97.9214 9.41398C97.9214 12.0225 97.9214 14.6324 97.9214 17.2438C97.9214 17.6051 97.7575 17.7682 97.4084 17.7682H95.7685C95.4027 17.7682 95.2513 17.6095 95.2471 17.2306V13.3355Z" fill="white" stroke="#323232" stroke-width="0.3" stroke-miterlimit="10"/>
<path id="Vector_7" d="M98.3035 6.3213C98.3 6.67968 98.1949 7.02888 98.0016 7.3245C97.8082 7.62012 97.5353 7.8488 97.2175 7.98143C96.8998 8.11406 96.5515 8.14464 96.2172 8.06931C95.8828 7.99398 95.5773 7.81614 95.3397 7.55839C95.102 7.30064 94.9429 6.97466 94.8825 6.62188C94.8222 6.26911 94.8634 5.90549 95.0008 5.57729C95.1382 5.24909 95.3657 4.97112 95.6543 4.77877C95.9429 4.58643 96.2796 4.48839 96.6215 4.49712C97.075 4.50639 97.5066 4.70351 97.8218 5.04537C98.1371 5.38722 98.3102 5.84599 98.3035 6.3213Z" fill="white" stroke="#323232" stroke-width="0.3" stroke-miterlimit="10"/>
</g>
<g id="Group 10">
<path id="Vector_8" d="M48.8713 21.7343H33.3506C32.8362 21.6848 32.3509 21.4622 31.9672 21.0998C31.6668 20.85 31.4239 20.5325 31.2565 20.171C31.0891 19.8095 31.0014 19.4131 31 19.0112C31 13.759 31 8.5039 31 3.24582C31.0215 2.62457 31.2336 2.02715 31.6047 1.54218C31.9759 1.05721 32.4864 0.710537 33.0605 0.553635C33.2594 0.50963 33.4628 0.491869 33.666 0.500762C38.6573 0.500762 43.6444 0.500762 48.6315 0.500762C49.204 0.515596 49.758 0.716495 50.2168 1.07566C50.6756 1.43483 51.0165 1.9345 51.1924 2.50558C51.2429 2.67302 51.2302 2.84928 51.2723 3.01231V19.3153C51.2127 19.8785 50.9795 20.406 50.6079 20.8178C50.3981 21.0802 50.139 21.2946 49.8467 21.4477C49.5545 21.6008 49.2353 21.6894 48.9091 21.7078C48.9091 21.7078 48.8839 21.7078 48.8713 21.7343Z" stroke="white" stroke-miterlimit="10"/>
<path id="Vector_9" d="M46.5213 7.42318C46.1715 7.57973 45.8041 7.68928 45.428 7.74923C45.6004 7.71839 45.8485 7.38352 45.9663 7.25133C46.127 7.04481 46.2497 6.80872 46.3279 6.55514C46.3279 6.53311 46.3279 6.51107 46.3279 6.49345C46.319 6.48803 46.3088 6.48519 46.2985 6.48519C46.2882 6.48519 46.278 6.48803 46.269 6.49345C45.8574 6.7208 45.4212 6.89539 44.9697 7.0134C44.9541 7.01844 44.9375 7.01861 44.9218 7.01391C44.9061 7.00922 44.8921 6.99987 44.8814 6.98697C44.8457 6.94375 44.8078 6.90255 44.7679 6.86358C44.5789 6.69621 44.3661 6.56092 44.1371 6.46263C43.8307 6.33204 43.5 6.27629 43.1699 6.2996C42.8514 6.32235 42.5407 6.41385 42.2575 6.56837C41.9728 6.72584 41.7211 6.9416 41.5174 7.20287C41.3064 7.47308 41.1556 7.78917 41.0759 8.12816C41.0149 8.45109 41.0149 8.78342 41.0759 9.10635C41.0759 9.15923 41.0759 9.16804 41.0296 9.15922C39.3116 8.97593 37.7206 8.12746 36.5681 6.77986C36.5135 6.71818 36.484 6.71818 36.442 6.77986C36.2101 7.22841 36.1225 7.74336 36.1922 8.24821C36.2619 8.75307 36.4852 9.22089 36.8288 9.5822C36.9171 9.67033 37.0055 9.75405 37.1022 9.83336C36.8088 9.80832 36.523 9.72297 36.2612 9.5822C36.2107 9.54695 36.1855 9.58222 36.1813 9.63069C36.1731 9.71861 36.1731 9.80714 36.1813 9.89505C36.233 10.3167 36.3913 10.7163 36.6396 11.0525C36.888 11.3886 37.2175 11.6492 37.5941 11.8074C37.6858 11.8494 37.7817 11.8804 37.8801 11.8999C37.603 11.9566 37.3189 11.9655 37.0391 11.9263C36.976 11.9263 36.9508 11.9263 36.976 12.01C37.1204 12.4065 37.3594 12.7576 37.67 13.0298C37.9806 13.3021 38.3526 13.4865 38.7505 13.5654C38.8304 13.5654 38.9103 13.5654 38.9944 13.6007C38.7968 13.9223 38.103 14.1559 37.7834 14.2748C37.194 14.497 36.5653 14.5812 35.9416 14.5216C35.8449 14.5216 35.8239 14.5216 35.7944 14.5216C35.765 14.5216 35.7944 14.5656 35.8238 14.5921C35.95 14.6802 36.0762 14.7551 36.2065 14.83C36.5977 15.0492 37.0109 15.2221 37.4385 15.3455C39.6504 15.9844 42.1397 15.5174 43.8007 13.7857C45.1042 12.4286 45.5626 10.556 45.5626 8.68335C45.5626 8.60844 45.6425 8.5688 45.6929 8.52914C46.0249 8.26177 46.3169 7.94395 46.5592 7.58621C46.5968 7.53417 46.6175 7.47082 46.6181 7.40554C46.5676 7.39232 46.5634 7.40115 46.5213 7.42318Z" fill="white"/>
</g>
<g id="TEXT">
<path id="Vector_10" d="M18.9385 0.498535H3.33377C2.04487 0.498535 1 1.5934 1 2.94398V19.2954C1 20.646 2.04487 21.7409 3.33377 21.7409H18.9385C20.2274 21.7409 21.2723 20.646 21.2723 19.2954V2.94398C21.2723 1.5934 20.2274 0.498535 18.9385 0.498535Z" stroke="white" stroke-miterlimit="10"/>
<path id="Vector_11" d="M14.9984 12.2362L15.4189 9.41179H12.8329V7.5832C12.8329 6.81212 13.1945 6.05865 14.3509 6.05865H15.5282V3.64846C14.833 3.52902 14.1302 3.46421 13.4258 3.45459C11.298 3.45459 9.90617 4.80729 9.90617 7.25274V9.40297H7.54297V12.2273H9.90617V19.0702H12.816V12.2362H14.9984Z" fill="white" stroke="#323232" stroke-width="0.5" stroke-miterlimit="10"/>
</g>
</g>
</svg>
